<mxfile host="65bd71144e">
    <diagram id="aR7NOO-rDvEej-fjCeps" name="Page-1">
        <mxGraphModel dx="1798" dy="1637" grid="1" gridSize="10" guides="1" tooltips="1" connect="1" arrows="1" fold="1" page="1" pageScale="1" pageWidth="850" pageHeight="1100" math="0" shadow="0">
            <root>
                <mxCell id="0"/>
                <mxCell id="1" parent="0"/>
                <mxCell id="tSNJE-apScUmnOsd60CS-6" value="" style="rounded=1;whiteSpace=wrap;html=1;fontSize=10;fillColor=#f5f5f5;fontColor=#333333;strokeColor=#666666;" parent="1" vertex="1">
                    <mxGeometry x="60" y="240" width="360" height="40" as="geometry"/>
                </mxCell>
                <mxCell id="tSNJE-apScUmnOsd60CS-2" value="" style="rounded=1;whiteSpace=wrap;html=1;fontSize=10;fillColor=#f5f5f5;fontColor=#333333;strokeColor=#666666;" parent="1" vertex="1">
                    <mxGeometry x="60" y="200" width="360" height="40" as="geometry"/>
                </mxCell>
                <mxCell id="5fgHFwbLvVJDYsICavpB-82" value="" style="rounded=1;whiteSpace=wrap;html=1;fontSize=10;fillColor=#f5f5f5;fontColor=#333333;strokeColor=#666666;" parent="1" vertex="1">
                    <mxGeometry x="60" y="320" width="360" height="40" as="geometry"/>
                </mxCell>
                <mxCell id="5fgHFwbLvVJDYsICavpB-38" value="" style="rounded=1;whiteSpace=wrap;html=1;fontSize=10;fillColor=#f5f5f5;fontColor=#333333;strokeColor=#666666;" parent="1" vertex="1">
                    <mxGeometry x="60" y="560" width="360" height="40" as="geometry"/>
                </mxCell>
                <mxCell id="5fgHFwbLvVJDYsICavpB-66" value="" style="rounded=1;whiteSpace=wrap;html=1;fontSize=10;fillColor=#f5f5f5;fontColor=#333333;strokeColor=#666666;" parent="1" vertex="1">
                    <mxGeometry x="60" y="-40" width="360" height="40" as="geometry"/>
                </mxCell>
                <mxCell id="5fgHFwbLvVJDYsICavpB-67" value="" style="rounded=1;whiteSpace=wrap;html=1;fontSize=10;fillColor=#f5f5f5;fontColor=#333333;strokeColor=#666666;" parent="1" vertex="1">
                    <mxGeometry x="60" width="360" height="40" as="geometry"/>
                </mxCell>
                <mxCell id="5fgHFwbLvVJDYsICavpB-68" value="" style="rounded=1;whiteSpace=wrap;html=1;fontSize=10;fillColor=#f5f5f5;fontColor=#333333;strokeColor=#666666;" parent="1" vertex="1">
                    <mxGeometry x="60" y="80" width="360" height="40" as="geometry"/>
                </mxCell>
                <mxCell id="5fgHFwbLvVJDYsICavpB-70" value="" style="rounded=1;whiteSpace=wrap;html=1;fontSize=10;fillColor=#f5f5f5;fontColor=#333333;strokeColor=#666666;" parent="1" vertex="1">
                    <mxGeometry x="60" y="160" width="360" height="40" as="geometry"/>
                </mxCell>
                <mxCell id="5fgHFwbLvVJDYsICavpB-72" value="" style="rounded=1;whiteSpace=wrap;html=1;fontSize=10;fillColor=#f5f5f5;fontColor=#333333;strokeColor=#666666;" parent="1" vertex="1">
                    <mxGeometry x="60" y="400" width="360" height="40" as="geometry"/>
                </mxCell>
                <mxCell id="5fgHFwbLvVJDYsICavpB-74" value="" style="rounded=1;whiteSpace=wrap;html=1;fontSize=10;fillColor=#f5f5f5;fontColor=#333333;strokeColor=#666666;" parent="1" vertex="1">
                    <mxGeometry x="60" y="480" width="360" height="40" as="geometry"/>
                </mxCell>
                <mxCell id="5fgHFwbLvVJDYsICavpB-75" value="" style="rounded=1;whiteSpace=wrap;html=1;fontSize=10;fillColor=#f5f5f5;fontColor=#333333;strokeColor=#666666;" parent="1" vertex="1">
                    <mxGeometry x="60" y="520" width="360" height="40" as="geometry"/>
                </mxCell>
                <mxCell id="5fgHFwbLvVJDYsICavpB-37" value="" style="rounded=1;whiteSpace=wrap;html=1;fontSize=10;fillColor=#f5f5f5;fontColor=#333333;strokeColor=#666666;" parent="1" vertex="1">
                    <mxGeometry x="60" y="520" width="360" height="40" as="geometry"/>
                </mxCell>
                <mxCell id="5fgHFwbLvVJDYsICavpB-36" value="" style="rounded=1;whiteSpace=wrap;html=1;fontSize=10;fillColor=#f5f5f5;fontColor=#333333;strokeColor=#666666;" parent="1" vertex="1">
                    <mxGeometry x="60" y="480" width="360" height="40" as="geometry"/>
                </mxCell>
                <mxCell id="5fgHFwbLvVJDYsICavpB-35" value="" style="rounded=1;whiteSpace=wrap;html=1;fontSize=10;fillColor=#f5f5f5;fontColor=#333333;strokeColor=#666666;" parent="1" vertex="1">
                    <mxGeometry x="60" y="440" width="360" height="40" as="geometry"/>
                </mxCell>
                <mxCell id="5fgHFwbLvVJDYsICavpB-31" value="" style="rounded=1;whiteSpace=wrap;html=1;fontSize=10;fillColor=#f5f5f5;fontColor=#333333;strokeColor=#666666;" parent="1" vertex="1">
                    <mxGeometry x="60" y="120" width="360" height="40" as="geometry"/>
                </mxCell>
                <mxCell id="5fgHFwbLvVJDYsICavpB-30" value="" style="rounded=1;whiteSpace=wrap;html=1;fontSize=10;fillColor=#f5f5f5;fontColor=#333333;strokeColor=#666666;" parent="1" vertex="1">
                    <mxGeometry x="60" y="40" width="360" height="40" as="geometry"/>
                </mxCell>
                <mxCell id="5fgHFwbLvVJDYsICavpB-28" value="" style="rounded=1;whiteSpace=wrap;html=1;fontSize=10;fillColor=#f5f5f5;fontColor=#333333;strokeColor=#666666;" parent="1" vertex="1">
                    <mxGeometry x="60" y="-40" width="360" height="40" as="geometry"/>
                </mxCell>
                <mxCell id="5fgHFwbLvVJDYsICavpB-3" style="edgeStyle=orthogonalEdgeStyle;rounded=0;orthogonalLoop=1;jettySize=auto;html=1;" parent="1" source="5fgHFwbLvVJDYsICavpB-1" edge="1">
                    <mxGeometry relative="1" as="geometry">
                        <mxPoint x="60" y="680" as="targetPoint"/>
                    </mxGeometry>
                </mxCell>
                <mxCell id="5fgHFwbLvVJDYsICavpB-1" value="SERVER" style="rounded=0;whiteSpace=wrap;html=1;" parent="1" vertex="1">
                    <mxGeometry y="-140" width="120" height="60" as="geometry"/>
                </mxCell>
                <mxCell id="5fgHFwbLvVJDYsICavpB-4" style="edgeStyle=orthogonalEdgeStyle;rounded=0;orthogonalLoop=1;jettySize=auto;html=1;" parent="1" source="5fgHFwbLvVJDYsICavpB-2" edge="1">
                    <mxGeometry relative="1" as="geometry">
                        <mxPoint x="420" y="680" as="targetPoint"/>
                        <Array as="points">
                            <mxPoint x="420" y="240"/>
                            <mxPoint x="420" y="240"/>
                        </Array>
                    </mxGeometry>
                </mxCell>
                <mxCell id="5fgHFwbLvVJDYsICavpB-2" value="CLIENT" style="rounded=0;whiteSpace=wrap;html=1;" parent="1" vertex="1">
                    <mxGeometry x="355" y="-140" width="120" height="60" as="geometry"/>
                </mxCell>
                <mxCell id="5fgHFwbLvVJDYsICavpB-5" value="" style="endArrow=classic;html=1;rounded=0;strokeWidth=5;" parent="1" edge="1">
                    <mxGeometry width="50" height="50" relative="1" as="geometry">
                        <mxPoint x="60" y="-40" as="sourcePoint"/>
                        <mxPoint x="420" y="-40" as="targetPoint"/>
                    </mxGeometry>
                </mxCell>
                <mxCell id="5fgHFwbLvVJDYsICavpB-7" value="&lt;font style=&quot;font-size: 10px&quot;&gt;connect()&lt;/font&gt;" style="text;html=1;align=center;verticalAlign=middle;resizable=0;points=[];autosize=1;strokeColor=none;fillColor=none;rounded=0;shadow=0;sketch=0;fontStyle=1" parent="1" vertex="1">
                    <mxGeometry x="205" y="-40" width="60" height="20" as="geometry"/>
                </mxCell>
                <mxCell id="5fgHFwbLvVJDYsICavpB-8" value="&lt;font style=&quot;font-size: 10px&quot;&gt;connect()&lt;/font&gt;" style="text;html=1;align=center;verticalAlign=middle;resizable=0;points=[];autosize=1;strokeColor=none;fillColor=none;fontStyle=1" parent="1" vertex="1">
                    <mxGeometry x="205" y="40" width="60" height="20" as="geometry"/>
                </mxCell>
                <mxCell id="5fgHFwbLvVJDYsICavpB-12" value="&lt;font style=&quot;font-size: 10px&quot;&gt;connected()&lt;/font&gt;" style="text;html=1;align=center;verticalAlign=middle;resizable=0;points=[];autosize=1;strokeColor=none;fillColor=none;fontStyle=1" parent="1" vertex="1">
                    <mxGeometry x="470" y="20" width="70" height="20" as="geometry"/>
                </mxCell>
                <mxCell id="5fgHFwbLvVJDYsICavpB-16" value="&lt;font style=&quot;font-size: 10px&quot;&gt;fillOtherPlayersTable(arrayOfPlayers)&lt;/font&gt;" style="text;html=1;align=center;verticalAlign=middle;resizable=0;points=[];autosize=1;strokeColor=none;fillColor=none;fontStyle=1" parent="1" vertex="1">
                    <mxGeometry x="475" y="610" width="190" height="20" as="geometry"/>
                </mxCell>
                <mxCell id="5fgHFwbLvVJDYsICavpB-21" value="arrayOfPlayers.put(new Player(player.x,player.y))" style="text;html=1;align=center;verticalAlign=middle;resizable=0;points=[];autosize=1;strokeColor=none;fillColor=none;fontSize=10;fontStyle=1" parent="1" vertex="1">
                    <mxGeometry x="-250" y="360" width="250" height="20" as="geometry"/>
                </mxCell>
                <mxCell id="5fgHFwbLvVJDYsICavpB-22" value="" style="endArrow=classic;html=1;rounded=0;strokeWidth=5;" parent="1" edge="1">
                    <mxGeometry width="50" height="50" relative="1" as="geometry">
                        <mxPoint x="60" y="320" as="sourcePoint"/>
                        <mxPoint x="60" y="360" as="targetPoint"/>
                        <Array as="points">
                            <mxPoint y="320"/>
                            <mxPoint y="360"/>
                        </Array>
                    </mxGeometry>
                </mxCell>
                <mxCell id="5fgHFwbLvVJDYsICavpB-29" value="" style="rounded=1;whiteSpace=wrap;html=1;fontSize=10;fillColor=#f5f5f5;fontColor=#333333;strokeColor=#666666;" parent="1" vertex="1">
                    <mxGeometry x="60" width="360" height="40" as="geometry"/>
                </mxCell>
                <mxCell id="5fgHFwbLvVJDYsICavpB-33" value="" style="rounded=1;whiteSpace=wrap;html=1;fontSize=10;fillColor=#f5f5f5;fontColor=#333333;strokeColor=#666666;" parent="1" vertex="1">
                    <mxGeometry x="60" y="280" width="360" height="40" as="geometry"/>
                </mxCell>
                <mxCell id="5fgHFwbLvVJDYsICavpB-34" value="" style="rounded=1;whiteSpace=wrap;html=1;fontSize=10;fillColor=#f5f5f5;fontColor=#333333;strokeColor=#666666;" parent="1" vertex="1">
                    <mxGeometry x="60" y="400" width="360" height="40" as="geometry"/>
                </mxCell>
                <mxCell id="5fgHFwbLvVJDYsICavpB-64" value="" style="endArrow=classic;html=1;rounded=0;strokeWidth=5;" parent="1" edge="1">
                    <mxGeometry width="50" height="50" relative="1" as="geometry">
                        <mxPoint x="420" as="sourcePoint"/>
                        <mxPoint x="420" y="40" as="targetPoint"/>
                        <Array as="points">
                            <mxPoint x="470"/>
                            <mxPoint x="470" y="40"/>
                        </Array>
                    </mxGeometry>
                </mxCell>
                <mxCell id="5fgHFwbLvVJDYsICavpB-65" value="&lt;span style=&quot;color: rgb(51 , 51 , 51)&quot;&gt;&lt;font style=&quot;font-size: 10px&quot;&gt;socket.on(&quot;UpdatePlayerTable&quot;, arrayOfPlayers)&lt;/font&gt;&lt;/span&gt;" style="text;html=1;align=center;verticalAlign=middle;resizable=0;points=[];autosize=1;strokeColor=none;fillColor=none;fontSize=12;fontStyle=1" parent="1" vertex="1">
                    <mxGeometry x="470" y="570" width="240" height="20" as="geometry"/>
                </mxCell>
                <mxCell id="5fgHFwbLvVJDYsICavpB-24" value="" style="endArrow=classic;html=1;rounded=0;strokeWidth=5;" parent="1" edge="1">
                    <mxGeometry width="50" height="50" relative="1" as="geometry">
                        <mxPoint x="60" y="520" as="sourcePoint"/>
                        <mxPoint x="420" y="520" as="targetPoint"/>
                    </mxGeometry>
                </mxCell>
                <mxCell id="5fgHFwbLvVJDYsICavpB-13" value="&lt;font style=&quot;font-size: 10px&quot;&gt;socket.broadcast.emit(&quot;updatePlayerTable&quot;, arrayOfPlayers)&lt;/font&gt;" style="text;html=1;align=center;verticalAlign=middle;resizable=0;points=[];autosize=1;strokeColor=none;fillColor=none;fontStyle=1" parent="1" vertex="1">
                    <mxGeometry x="80" y="530" width="300" height="20" as="geometry"/>
                </mxCell>
                <mxCell id="5fgHFwbLvVJDYsICavpB-76" value="" style="endArrow=classic;html=1;rounded=0;strokeWidth=5;" parent="1" edge="1">
                    <mxGeometry width="50" height="50" relative="1" as="geometry">
                        <mxPoint x="420" y="560" as="sourcePoint"/>
                        <mxPoint x="420" y="600" as="targetPoint"/>
                        <Array as="points">
                            <mxPoint x="470" y="560"/>
                            <mxPoint x="470" y="600"/>
                        </Array>
                    </mxGeometry>
                </mxCell>
                <mxCell id="5fgHFwbLvVJDYsICavpB-77" value="&lt;span style=&quot;color: rgb(51 , 51 , 51)&quot;&gt;&lt;font style=&quot;font-size: 10px&quot;&gt;socket.on(&quot;addPlayer&quot;)&lt;/font&gt;&lt;/span&gt;" style="text;html=1;align=center;verticalAlign=middle;resizable=0;points=[];autosize=1;strokeColor=none;fillColor=none;fontSize=12;fontStyle=1" parent="1" vertex="1">
                    <mxGeometry x="-130" y="330" width="130" height="20" as="geometry"/>
                </mxCell>
                <mxCell id="5fgHFwbLvVJDYsICavpB-78" value="" style="endArrow=classic;html=1;rounded=0;strokeWidth=5;" parent="1" edge="1">
                    <mxGeometry width="50" height="50" relative="1" as="geometry">
                        <mxPoint x="60" y="360" as="sourcePoint"/>
                        <mxPoint x="60" y="400" as="targetPoint"/>
                        <Array as="points">
                            <mxPoint y="360"/>
                            <mxPoint y="400"/>
                        </Array>
                    </mxGeometry>
                </mxCell>
                <mxCell id="5fgHFwbLvVJDYsICavpB-89" value="" style="rounded=1;whiteSpace=wrap;html=1;fontSize=10;fillColor=#f5f5f5;fontColor=#333333;strokeColor=#666666;" parent="1" vertex="1">
                    <mxGeometry x="60" y="360" width="360" height="40" as="geometry"/>
                </mxCell>
                <mxCell id="5fgHFwbLvVJDYsICavpB-94" value="" style="endArrow=classic;html=1;rounded=0;strokeWidth=5;" parent="1" edge="1">
                    <mxGeometry width="50" height="50" relative="1" as="geometry">
                        <mxPoint x="420" y="600" as="sourcePoint"/>
                        <mxPoint x="420" y="640" as="targetPoint"/>
                        <Array as="points">
                            <mxPoint x="470" y="600"/>
                            <mxPoint x="470" y="640"/>
                        </Array>
                    </mxGeometry>
                </mxCell>
                <mxCell id="5fgHFwbLvVJDYsICavpB-95" value="" style="rounded=1;whiteSpace=wrap;html=1;fontSize=10;fillColor=#f5f5f5;fontColor=#333333;strokeColor=#666666;" parent="1" vertex="1">
                    <mxGeometry x="60" y="600" width="360" height="40" as="geometry"/>
                </mxCell>
                <mxCell id="tSNJE-apScUmnOsd60CS-1" value="" style="group" parent="1" vertex="1" connectable="0">
                    <mxGeometry x="-80" y="80" width="80" height="40" as="geometry"/>
                </mxCell>
                <mxCell id="5fgHFwbLvVJDYsICavpB-10" value="&lt;font style=&quot;font-size: 10px&quot;&gt;connected()&lt;/font&gt;" style="text;html=1;align=center;verticalAlign=middle;resizable=0;points=[];autosize=1;strokeColor=none;fillColor=none;fontStyle=1;container=1;" parent="tSNJE-apScUmnOsd60CS-1" vertex="1">
                    <mxGeometry y="10" width="70" height="20" as="geometry"/>
                </mxCell>
                <mxCell id="5fgHFwbLvVJDYsICavpB-25" value="" style="endArrow=classic;html=1;rounded=0;strokeWidth=5;" parent="tSNJE-apScUmnOsd60CS-1" edge="1">
                    <mxGeometry width="50" height="50" relative="1" as="geometry">
                        <mxPoint x="140" as="sourcePoint"/>
                        <mxPoint x="140" y="40" as="targetPoint"/>
                        <Array as="points">
                            <mxPoint x="80"/>
                            <mxPoint x="80" y="40"/>
                        </Array>
                    </mxGeometry>
                </mxCell>
                <mxCell id="tSNJE-apScUmnOsd60CS-10" value="Every Client" style="rounded=0;whiteSpace=wrap;html=1;" parent="1" vertex="1">
                    <mxGeometry x="420" y="440" width="120" height="40" as="geometry"/>
                </mxCell>
                <mxCell id="5fgHFwbLvVJDYsICavpB-6" value="" style="endArrow=classic;html=1;rounded=0;exitX=0.046;exitY=1.079;exitDx=0;exitDy=0;exitPerimeter=0;strokeWidth=5;" parent="1" edge="1">
                    <mxGeometry width="50" height="50" relative="1" as="geometry">
                        <mxPoint x="419.99999999999983" y="41.58000000000004" as="sourcePoint"/>
                        <mxPoint x="61.32" y="40" as="targetPoint"/>
                    </mxGeometry>
                </mxCell>
                <mxCell id="2" value="" style="group" vertex="1" connectable="0" parent="1">
                    <mxGeometry x="65" y="160" width="360" height="20" as="geometry"/>
                </mxCell>
                <mxCell id="5fgHFwbLvVJDYsICavpB-83" value="" style="endArrow=classic;html=1;rounded=0;strokeWidth=5;" parent="2" edge="1">
                    <mxGeometry width="50" height="50" relative="1" as="geometry">
                        <mxPoint y="1.1368683772161603e-13" as="sourcePoint"/>
                        <mxPoint x="360" y="1.1368683772161603e-13" as="targetPoint"/>
                    </mxGeometry>
                </mxCell>
                <mxCell id="5fgHFwbLvVJDYsICavpB-85" value="&lt;span style=&quot;font-size: 10px&quot;&gt;socket.emit(&quot;assignID2Player&quot;,id)&lt;/span&gt;" style="text;html=1;align=center;verticalAlign=middle;resizable=0;points=[];autosize=1;strokeColor=none;fillColor=none;fontStyle=1" parent="2" vertex="1">
                    <mxGeometry x="95" width="180" height="20" as="geometry"/>
                </mxCell>
                <mxCell id="4" value="" style="group" vertex="1" connectable="0" parent="1">
                    <mxGeometry x="60" y="280" width="360" height="25" as="geometry"/>
                </mxCell>
                <mxCell id="5fgHFwbLvVJDYsICavpB-17" value="" style="endArrow=classic;html=1;rounded=0;strokeWidth=5;" parent="4" edge="1">
                    <mxGeometry width="50" height="50" relative="1" as="geometry">
                        <mxPoint x="360" as="sourcePoint"/>
                        <mxPoint as="targetPoint"/>
                    </mxGeometry>
                </mxCell>
                <mxCell id="6" value="" style="group" vertex="1" connectable="0" parent="1">
                    <mxGeometry x="60" y="440" width="360" height="20" as="geometry"/>
                </mxCell>
                <mxCell id="tSNJE-apScUmnOsd60CS-5" value="" style="endArrow=classic;html=1;rounded=0;strokeWidth=5;" parent="6" edge="1">
                    <mxGeometry width="50" height="50" relative="1" as="geometry">
                        <mxPoint x="360" as="sourcePoint"/>
                        <mxPoint as="targetPoint"/>
                    </mxGeometry>
                </mxCell>
                <mxCell id="tSNJE-apScUmnOsd60CS-7" value="&lt;span style=&quot;font-size: 10px&quot;&gt;socket.emit(&quot;refreshPlayersPosition&quot;,x,y)&lt;/span&gt;" style="text;html=1;align=center;verticalAlign=middle;resizable=0;points=[];autosize=1;strokeColor=none;fillColor=none;fontStyle=1;container=1;" parent="6" vertex="1">
                    <mxGeometry x="75" width="210" height="20" as="geometry"/>
                </mxCell>
                <mxCell id="7" value="" style="group" vertex="1" connectable="0" parent="1">
                    <mxGeometry x="465" y="200" width="170" height="80" as="geometry"/>
                </mxCell>
                <mxCell id="5fgHFwbLvVJDYsICavpB-86" value="" style="endArrow=classic;html=1;rounded=0;strokeWidth=5;" parent="7" edge="1">
                    <mxGeometry width="50" height="50" relative="1" as="geometry">
                        <mxPoint x="-45" y="40" as="sourcePoint"/>
                        <mxPoint x="-45" y="80" as="targetPoint"/>
                        <Array as="points">
                            <mxPoint x="5" y="40"/>
                            <mxPoint x="5" y="80"/>
                        </Array>
                    </mxGeometry>
                </mxCell>
                <mxCell id="5fgHFwbLvVJDYsICavpB-88" value="&lt;span style=&quot;font-size: 10px&quot;&gt;socket.on(&quot;&lt;/span&gt;&lt;span style=&quot;font-size: 10px&quot;&gt;assignID2Player&lt;/span&gt;&lt;span style=&quot;font-size: 10px&quot;&gt;&quot;,id)&lt;/span&gt;" style="text;html=1;align=center;verticalAlign=middle;resizable=0;points=[];autosize=1;strokeColor=none;fillColor=none;fontSize=12;fontStyle=1" parent="7" vertex="1">
                    <mxGeometry y="10" width="170" height="20" as="geometry"/>
                </mxCell>
                <mxCell id="5fgHFwbLvVJDYsICavpB-91" value="assignIDtoPlayer(id)" style="text;html=1;align=center;verticalAlign=middle;resizable=0;points=[];autosize=1;strokeColor=none;fillColor=none;fontSize=10;fontStyle=1" parent="7" vertex="1">
                    <mxGeometry x="10" y="50" width="110" height="20" as="geometry"/>
                </mxCell>
                <mxCell id="5fgHFwbLvVJDYsICavpB-93" value="" style="endArrow=classic;html=1;rounded=0;strokeWidth=5;" parent="7" edge="1">
                    <mxGeometry width="50" height="50" relative="1" as="geometry">
                        <mxPoint x="-45" y="1.1368683772161603e-13" as="sourcePoint"/>
                        <mxPoint x="-45" y="40.000000000000114" as="targetPoint"/>
                        <Array as="points">
                            <mxPoint x="5"/>
                            <mxPoint x="5" y="40"/>
                        </Array>
                    </mxGeometry>
                </mxCell>
                <mxCell id="5fgHFwbLvVJDYsICavpB-19" value="socket.emit(&quot;addPlayer&quot;, player.x, player.y)&lt;br&gt;/*Send position of newly created player*/" style="text;html=1;align=center;verticalAlign=middle;resizable=0;points=[];autosize=1;strokeColor=none;fillColor=none;fontSize=12;fontStyle=1" parent="1" vertex="1">
                    <mxGeometry x="110" y="280" width="260" height="30" as="geometry"/>
                </mxCell>
                <mxCell id="8" value="" style="group" vertex="1" connectable="0" parent="1">
                    <mxGeometry x="60" y="400.00000000000017" width="360" height="29.99999999999983" as="geometry"/>
                </mxCell>
                <mxCell id="tSNJE-apScUmnOsd60CS-3" value="" style="endArrow=classic;html=1;rounded=0;strokeWidth=5;" parent="8" edge="1">
                    <mxGeometry width="50" height="50" relative="1" as="geometry">
                        <mxPoint as="sourcePoint"/>
                        <mxPoint x="360" as="targetPoint"/>
                    </mxGeometry>
                </mxCell>
                <mxCell id="tSNJE-apScUmnOsd60CS-4" value="&lt;span style=&quot;font-size: 10px&quot;&gt;socket.broadcast(&quot;getUpdatedPosition&quot;)&lt;/span&gt;" style="text;html=1;align=center;verticalAlign=middle;resizable=0;points=[];autosize=1;strokeColor=none;fillColor=none;fontStyle=1" parent="8" vertex="1">
                    <mxGeometry x="-10" y="9.99999999999983" width="210" height="20" as="geometry"/>
                </mxCell>
            </root>
        </mxGraphModel>
    </diagram>
</mxfile>